<svg width="700" height="650" viewBox="0 0 700 650" fill="none" xmlns="http://www.w3.org/2000/svg">
<path d="M37.8928 592.993C37.8928 537.673 37.8928 482.343 37.8928 427.023C41.2128 422.763 45.9928 423.773 50.3528 423.763C95.2528 423.673 140.163 423.713 185.063 423.713C214.363 423.713 243.673 423.733 272.973 423.683C275.763 423.683 278.643 424.193 281.693 422.863C281.683 419.733 278.933 418.783 277.043 417.413C249.363 397.253 221.843 376.873 194.273 356.573C160.043 331.373 125.683 306.353 91.5728 280.983C76.4128 269.703 61.3828 258.263 45.9428 247.383C42.1028 244.683 39.6828 241.103 37.8828 236.933C37.8828 170.733 37.8828 104.533 37.8828 38.3325C42.0028 36.2225 44.6928 39.2425 47.3028 41.3325C98.7328 82.4125 150.453 123.113 201.913 164.153C227.913 184.883 254.043 205.463 280.083 226.143C293.753 236.993 307.593 247.623 321.203 258.553C328.173 264.153 328.383 263.993 335.683 258.473C356.203 242.953 376.733 227.443 397.453 212.203C432.053 186.773 466.463 161.053 500.863 135.353C541.133 105.263 581.603 75.4325 621.693 45.0825C630.723 38.2525 639.973 31.7125 648.973 24.8225C651.333 23.0125 654.053 22.3625 656.693 21.4425C659.713 20.4025 661.823 21.2625 662.073 24.8525C662.173 91.7725 662.033 158.673 662.213 225.573C662.233 231.403 660.283 235.203 655.483 238.503C604.223 273.663 552.883 308.703 501.603 343.833C465.733 368.403 429.943 393.083 393.953 417.483C392.213 418.663 390.373 419.743 388.933 421.973C391.853 424.643 395.273 423.583 398.293 423.583C479.623 423.653 560.953 423.633 642.283 423.643C646.303 423.643 650.323 423.713 654.333 423.803C659.903 423.933 662.293 426.413 662.183 432.183C661.933 445.413 662.103 458.663 662.103 471.893C662.103 509.953 662.113 548.013 662.093 586.073C662.093 594.943 661.213 595.833 652.553 596.243C649.483 596.383 646.403 596.343 643.333 596.343C446.863 596.343 250.393 596.363 53.9228 596.263C48.4828 596.283 42.4228 598.023 37.8928 592.993Z" fill="#002E59"/>
</svg>
